<?xml version="1.0" encoding="UTF-8"?>
<svg xmlns="http://www.w3.org/2000/svg" id="uuid-58dfcac1-d2a3-4d64-b02d-8a714f3f0635" data-name="Layer 2" viewBox="0 0 78.26 34.91">
  <g id="uuid-de0cb703-ffc2-4ad6-aefc-826789e0e4e0" data-name="Layer 1">
    <g>
      <path d="M4.18,34.25v-17.6H0l.02-4.05h4.16v-1.6c0-.82.08-1.64.24-2.38.16-.74.4-1.41.7-2.01.3-.6.67-1.13,1.11-1.61.44-.47.94-.88,1.52-1.22.58-.35,1.23-.62,1.97-.81.73-.19,1.55-.28,2.25-.29,1.4-.02,2.47.24,3.7.74.61.26,1.22.6,1.8.99l-1.78,3.42c-.47-.3-.96-.56-1.37-.74-.84-.36-1.34-.41-2-.42-.34,0-.71.05-1.04.13-.33.09-.61.21-.86.37-.25.16-.47.35-.66.57-.19.22-.36.49-.5.79-.55,1.11-.44,2.64-.46,4.04h6.63l-1.43,4.05h-5.19v17.6h-4.62Z"></path>
      <path d="M31.92,17.71c-.34-.31-.71-.6-1.09-.85-.38-.24-.78-.45-1.21-.62-.43-.17-.91-.32-1.49-.41-.58-.1-1.29-.15-1.85-.16-.57-.01-1,0-1.38.05-.38.04-.72.1-1.01.17-.29.07-.55.15-.77.25-.22.09-.41.19-.57.29-.16.1-.3.21-.42.32-.8.82-.85,1.7-.36,2.62.13.2.29.4.55.6.13.1.28.19.46.29.18.1.39.19.67.29.27.1.61.2,1.09.29.47.1,1.08.19,1.7.26,1.32.12,2.64.32,3.59.53.95.21,1.54.43,2.02.65s.86.43,1.19.65c.33.22.6.45.84.68,1.43,1.48,1.62,2.86,1.66,4.39,0,.59-.08,1.18-.24,1.74-.16.56-.4,1.09-.72,1.59-.32.5-.73.97-1.23,1.39-.5.43-1.1.82-1.8,1.15-.7.33-1.51.6-2.41.79-.91.19-1.92.28-2.95.29-1.03,0-2.1-.09-3-.23-.9-.15-1.64-.36-2.3-.6-.66-.24-1.25-.52-1.8-.84-.55-.32-1.05-.67-1.53-1.07-.48-.4-.93-.83-1.35-1.31l2.4-3.25c.4.44.85.84,1.36,1.21.51.37,1.08.71,1.73,1.01.64.29,1.36.55,2.14.72.78.18,1.62.28,2.46.3.44,0,.88-.03,1.28-.1.4-.06.76-.15,1.07-.25.31-.1.57-.21.8-.32.22-.11.4-.23.56-.35,1.1-.89,1.08-1.72.84-2.68-.12-.35-.33-.67-.75-1-.13-.1-.29-.21-.49-.31-.2-.1-.43-.2-.73-.31-.3-.1-.66-.2-1.17-.3-.51-.1-1.15-.19-1.8-.25-1.04-.1-2.09-.26-2.93-.46-.84-.19-1.48-.42-2.01-.64-.54-.23-.97-.46-1.33-.69-.37-.24-.66-.47-.92-.71-1.76-1.73-1.86-3.28-1.66-5.09.2-1.17.66-2.32,2-3.47.32-.26.69-.52,1.12-.76.44-.25.94-.48,1.53-.69.59-.2,1.26-.38,2-.51.75-.12,1.57-.2,2.38-.2,1.2,0,2.4.11,3.43.34,1.02.22,1.88.54,2.7.97.82.43,1.61.97,2.32,1.58l-2.58,3.02Z"></path>
      <path d="M43.06,3.17v12.58c.32-.58.74-1.13,1.39-1.69.32-.28.7-.55,1.14-.81.44-.26.95-.51,1.52-.72,1.14-.43,2.43-.69,3.65-.69,1.15,0,2.29.14,3.33.4,1.03.26,1.95.65,2.77,1.13.82.48,1.53,1.05,2.14,1.7.61.65,1.13,1.39,1.56,2.21.42.82.75,1.73.98,2.75.23,1.01.35,2.12.34,3.32-.02,1.2-.18,2.5-.49,3.66-.32,1.17-.8,2.2-1.42,3.12-.62.92-1.38,1.73-2.29,2.4-.9.67-1.95,1.21-3.14,1.58-1.19.37-2.53.57-3.86.57-.75,0-1.49-.08-2.17-.21-.67-.13-1.28-.33-1.83-.57-.54-.24-1.03-.52-1.47-.83-.44-.31-.83-.66-1.19-1.05-.36-.38-.67-.81-.95-1.25l-.27,3.47h-4.31V3.17h4.58ZM43.33,23.27c0,.76.11,1.53.31,2.24.21.72.52,1.38.93,1.98.41.6.92,1.12,1.51,1.56.59.44,1.26.78,1.99,1.01.73.24,1.51.35,2.29.35s1.57-.12,2.29-.36c.73-.24,1.39-.58,1.97-1.02s1.07-.96,1.46-1.55c.4-.59.7-1.25.9-1.97.2-.72.31-1.49.31-2.27s-.1-1.55-.3-2.26c-.2-.71-.5-1.36-.89-1.95-.39-.59-.88-1.1-1.46-1.54-.57-.43-1.24-.78-1.97-1.01-.73-.24-1.53-.36-2.31-.36-.79,0-1.56.12-2.28.35-.73.24-1.4.58-1.99,1.02-.6.44-1.1.97-1.52,1.57s-.72,1.26-.93,1.96c-.21.71-.31,1.46-.31,2.21Z"></path>
      <path d="M72.65,11.09c.65-.01,1.4.16,2.09.66.3.21.57.48.79.79.61.83.81,1.95.55,2.92-.08.29-.19.58-.35.84-.16.27-.35.52-.57.74l1.46,1.46c.75-.75,1.22-1.64,1.46-2.52.25-.94.25-2.02-.09-3.1-.17-.55-.44-1.08-.78-1.56-.35-.48-.77-.91-1.25-1.25-1-.72-2.13-1.06-3.3-1.05-.39,0-.79-.08-1.16-.21-.37-.14-.73-.35-1.04-.62-.31-.27-.57-.59-.78-.95-.2.68-.51,1.36-1.03,2.06.35.38.75.71,1.19.98.89.54,1.87.81,2.82.81Z"></path>
      <path d="M75.15,17.03c-.78.75-1.66,1.01-2.48,1.01-.6-.01-1.34-.18-2-.66-.3-.22-.57-.48-.79-.79-.71-1.02-.83-2.07-.45-3.21.13-.38.34-.74.61-1.06.27-.31.59-.58.95-.79-.69-.19-1.37-.51-2.06-1.03-.82.76-1.33,1.69-1.58,2.59-.27.97-.27,2.06.07,3.15.17.55.44,1.08.78,1.56.35.48.77.91,1.25,1.25,1.31.97,3.11,1.29,4.64.87.46-.12.91-.3,1.34-.54.42-.24.82-.54,1.17-.89l-1.46-1.46Z"></path>
      <path d="M61.11,7.86c-.9-1.04-1.08-2.21-.73-3.37.11-.35.28-.68.49-.98.22-.3.48-.57.79-.79.85-.61,1.88-.8,2.77-.56.26.07.53.16.78.29.25.12.48.27.68.42.41.32.66.64.83.96.18-.65.49-1.34,1.03-2.06-.35-.38-.76-.71-1.2-.97-.44-.27-.91-.47-1.39-.61-.97-.28-2.07-.27-3.16.07-.55.17-1.08.44-1.56.78-.48.35-.91.77-1.25,1.25-1.24,1.8-1.43,3.81-.39,5.85.22.41.5.8.82,1.15l1.48-1.44Z"></path>
      <path d="M76.67,1.66l-1.45,1.48c.99,1.08,1.18,2.31.78,3.54-.13.37-.33.72-.58,1.03s-.56.58-.91.8c.67.2,1.34.52,2.02,1.03.79-.76,1.29-1.67,1.53-2.56.35-1.35.26-2.74-.52-4.15-.24-.42-.54-.82-.88-1.17Z"></path>
      <path d="M75.22,3.14l1.45-1.48c-.75-.76-1.65-1.24-2.53-1.48-.94-.26-2.02-.26-3.11.08-.55.17-1.08.44-1.56.79-.48.35-.91.77-1.25,1.25-.71.98-1.06,2.14-1.05,3.25,0,.36-.05.71-.16,1.06-.11.34-.28.67-.49.98-.22.3-.48.57-.79.78-.86.63-1.98.81-2.97.53-.31-.09-.61-.22-.89-.39-.28-.17-.54-.39-.76-.64-.49.48-.99.95-1.48,1.44.82.82,1.8,1.38,2.72,1.61.92.26,1.94.24,2.99-.07.53-.16,1.05-.41,1.52-.74.47-.33.9-.73,1.25-1.19.78-1.02,1.13-2.2,1.14-3.36,0-.36.05-.71.16-1.06.11-.35.28-.68.49-.98.21-.3.48-.57.79-.79.84-.61,1.96-.81,2.93-.54.3.08.59.2.86.36.27.16.53.36.75.59Z"></path>
    </g>
  </g>
</svg>
