<?xml version="1.0" encoding="UTF-8"?>
<svg xmlns="http://www.w3.org/2000/svg" id="uuid-38e14ed2-d96c-4c8b-b4d1-cbc8c551f6ab" data-name="Layer 2" viewBox="0 0 148.11 47.71">
  <g id="uuid-e5e9eaaf-85be-4f85-aaf1-449cb680a3bb" data-name="Layer 1">
    <g>
      <path d="M57.82,28.4c0,4.95-4.01,8.96-8.96,8.96s-8.96-4.01-8.96-8.96,4.01-8.96,8.96-8.96,8.96,4.01,8.96,8.96ZM53.38,22.47c-4.1-4.07-9.97-1.6-11.34,3.62-1.62,6.15,4.62,13.06,10.63,9.04,4.25-2.84,4.18-9.21.71-12.66Z"></path>
      <path d="M131.1,28.4c0,4.95-4.01,8.96-8.96,8.96s-8.96-4.01-8.96-8.96,4.01-8.96,8.96-8.96,8.96,4.01,8.96,8.96ZM121.24,20.49c-3.24.32-5.71,3.49-6.13,6.57-.78,5.6,4.66,11.47,10.31,8.41,6.94-3.76,3.59-15.75-4.18-14.98Z"></path>
      <path d="M117.02,8.94c0,4.94-4,8.94-8.94,8.94s-8.94-4-8.94-8.94S103.14,0,108.08,0s8.94,4,8.94,8.94ZM103.2,3.09c-2.81,2.97-2.92,7.23-.64,10.55,4.95,7.2,14.57,1.2,12.3-6.75-1.49-5.24-7.5-8.21-11.66-3.8Z"></path>
      <path d="M119.28,17.58v-.3c.53-.02.87-.74.92-1.18V1.64c-.03-.25-.3-.8-.51-.94-.18-.12-.48-.05-.41-.39,3.08.15,9.48-1.02,9.96,3.47.29,2.7-1.49,4.47-4.02,4.94l4.68,7.11c.24.32.74.92,1.06,1.15.37.26.9.16.8.61h-1.48c-.75,0-1.71-.72-2.16-1.28l-4.9-7.4-1.26-.15v7.19s.09.44.11.5c.12.37.45.82.87.84v.3s-3.64,0-3.64,0ZM121.94,1.34v6.39c.34.21.91.1,1.33.11.9.02,1.56.05,2.42-.39,1.14-.59,1.73-1.72,1.73-2.99,0-2.4-1.85-3.07-3.93-3.22-.25-.02-1.49-.08-1.55.1Z"></path>
      <path d="M29.3.31v.3c-.31-.06-.57.13-.7.4-.03.06-.21.52-.21.55v6.27h8.25l.11-.11V1.87c0-.32-.28-1-.57-1.18-.19-.12-.49-.03-.42-.38h3.65v.3c-.63-.08-.81.61-.91,1.1v14.3c.1.5.29,1.2.9,1.26v.3s-3.64,0-3.64,0v-.3c.72-.1.94-.88.99-1.49.18-2.17-.14-4.58,0-6.77l-.12-.26h-8.25v7.49c0,.06.24.6.3.69.21.28.53.29.61.39.07.08.05.26-.04.26h-3.61v-.29c.8-.1.95-.98.99-1.64.29-4.43-.22-9.16,0-13.62-.06-.44-.15-1.07-.57-1.34-.19-.12-.49-.03-.42-.38h3.65Z"></path>
      <path d="M135.25,35.64c.03.22.28.77.45.92.24.21.74.08.46.46-.11.07-2.35.07-2.63.04-.19-.02-.44-.18-.16-.32.72-.38.84-.71.89-1.54-.25-4.49.32-9.32,0-13.77-.03-.4-.15-1.09-.55-1.27-.22-.1-.7,0-.44-.4.1-.07,2.14-.07,2.4-.04.08.01.17,0,.22.08l9.39,14.75v-13.42c0-.28-.56-1.19-.99-1.03v-.38s2.96,0,2.96,0v.38c-.43-.21-.99.67-.99.95v15.9l-.11.11h-1.45s-.16-.09-.19-.13l-9.28-14.7v13.42Z"></path>
      <path d="M51.66.31v2.43h-.3c-.03-.39-.32-.99-.65-1.22-.12-.08-.73-.3-.84-.3h-5.4l-.11.11v6.39l.11.11h4.34c.55,0,1.32-.62,1.26-1.22h.3s0,3.27,0,3.27h-.3c.18-.39-.68-1.14-.95-1.14h-4.75v7.83h6.12c.38,0,1.2-.88,1.33-1.25.08-.23.12-1.08.45-.84l.08.08v2.89l-.11.11h-10.57l-.11-.19c.71-.28,1-.77,1.06-1.52-.23-4.5.31-9.31,0-13.77-.03-.4-.21-1.26-.61-1.44-.13-.06-.31-.01-.37-.05s-.09-.3.03-.3h10Z"></path>
      <path d="M27.55,33.32h.3c.07,2.49,2.78,3.06,4.83,2.89,3.18-.27,4.85-4.18,2-6.18-2.31-1.62-6.74-1.78-7.47-5.08-.47-2.11.62-4.12,2.59-4.95,2.37-1,4.41-.27,6.81.08-.13.84-.13,1.82,0,2.66h-.38c0-1.25-.77-1.83-1.9-2.09-1.91-.45-4.47-.27-5.17,1.91-1.31,4.09,4.36,4.43,6.79,6.06,3.7,2.48,2.18,7.67-2.07,8.47-2.48.46-3.49-.24-5.69-.71-.22-.05-.48.06-.63-.13v-2.93Z"></path>
      <path d="M24.66,22.75h-.3c0-1.23-.78-1.83-1.9-2.1-1.99-.47-4.63-.26-5.23,2.08-.98,3.82,3.99,4.24,6.42,5.63,4.09,2.34,2.9,7.87-1.64,8.73-2.48.46-3.49-.24-5.69-.71-.22-.05-.48.06-.63-.13v-2.93h.3c.04,3.07,4.64,3.55,6.69,2.24,1.02-.65,1.73-2.05,1.6-3.26-.46-4.2-8.61-2.92-9.03-7.93-.25-2.96,2.13-4.66,4.83-4.89,1.23-.1,2.19.23,3.35.44.39.07.92,0,1.25.2v2.62Z"></path>
      <path d="M76.87.31c.14.03.08.2.02.29-.6,0-.78.54-.9,1.04v11.63c.24,2.08,1.47,3.48,3.61,3.63,2.66.18,4.28-.96,4.46-3.69.24-3.76-.19-7.78,0-11.56-.05-.43-.4-1.14-.91-1.03v-.3s2.89,0,2.89,0l-.08.26c-.59.05-.81.62-.91,1.14-.16,3.67.22,7.53,0,11.18-.17,2.94-1.58,4.7-4.6,4.91-3.8.26-6.04-1.1-6.28-5.06-.22-3.62.17-7.47,0-11.11-.02-.27-.34-.93-.59-1.01-.17-.06-.33.08-.36-.17,0-.07.03-.15.08-.15h3.57Z"></path>
      <path d="M142.47.62v2.74l-.23-.03-.06-.09c.03-1.79-1.8-2.15-3.24-2.23-1.83-.1-3.57.54-3.96,2.51-.65,3.25,2.95,3.8,5.19,4.78,1.82.8,3.54,1.9,3.75,4.08.4,4.22-3.72,5.96-7.32,5.26-.99-.19-2.01-.74-3.02-.74l-.05-2.96.27-.07c-.02,2.67,3.49,3.35,5.55,2.78,1.95-.54,3.22-2.5,2.59-4.49-1.14-3.61-9.24-2.27-8.83-8.06.22-3.15,3.41-4.18,6.13-3.99,1.07.07,2.15.54,3.23.54Z"></path>
      <path d="M72.81,20.24v2.97l-.35-.07c-.3-2.03-2.44-2.73-4.26-2.66-8.38.31-9.7,11.75-2.52,15.15,2.12,1,5.76,1.04,7.03-1.28.21-.38.17-.9.7-.78v2.89c-1.03.05-2.03.48-3.03.66-6.37,1.18-11.65-3.01-11.2-9.6.39-5.64,6.08-8.96,11.35-7.77.76.17,1.48.51,2.27.51Z"></path>
      <path d="M81.21,37.05c-.29-.04-.22-.27.02-.36.78-.29.92-.67,1.24-1.42,1.92-4.52,3.57-9.52,5.32-14.15.2-.53.42-1.09.53-1.64l.23.26,5.89,15.86c.15.32.46.9.8,1.03.15.06.66.02.53.3-.05.11-.16.11-.26.12-.7.08-2.65.08-3.35,0-.2-.02-.37-.11-.21-.31l.6-.23.03-.63-2.36-6.42-4.55.02-2.34,6.41c-.06.18.08.55.21.67.17.16.77.16.42.49-.84-.09-1.92.12-2.74,0ZM86.04,28.45h3.8l-1.86-5.25-1.94,5.25Z"></path>
      <path d="M10.93,37.05c-.09-.03-.16-.24-.11-.3.07-.11.86.08.75-.7l-2.43-6.59h-4.54s-2.27,6.28-2.27,6.28c-.07.24-.02.77.21.89.16.09.51-.03.45.31-.08.14-.21.11-.34.12-.58.05-1.8.06-2.37,0-.1-.01-.22-.01-.26-.12-.11-.26.29-.23.45-.31.43-.22.56-.64.81-1.02l6.05-16.12c.07-.05.39.79.43.9,1.91,5.06,3.7,10.16,5.64,15.2.26.55.57,1.25,1.31,1.09v.38s-3.76,0-3.76,0ZM8.84,28.45l-1.79-4.87-.26-.38-1.83,5.25h3.88Z"></path>
      <path d="M100.76,20.77c-.08.06-.08.07-.08.16-.02,4.9.11,9.81.04,14.71.03.3.24.79.49.95.18.11.51.07.5.38l-3.68.06-.09-.06-.03-.23c.27-.03.53-.2.68-.42.06-.09.3-.62.3-.68v-14.76l-.11-.11h-3.04c-.52,0-1.17.61-1.35,1.09-.11.3-.03.88-.44.82v-2.97h11.67l.11.11v2.74l-.11.11-.23-.08c-.08-.54-.2-.99-.61-1.37-.2-.19-.65-.45-.91-.45h-3.12Z"></path>
      <path d="M23.9.31v2.89l-.27-.07c-.02-.59-.38-1.4-.93-1.66-.06-.03-.49-.17-.51-.17h-3.23v15.1c0,.24.58.94.9.88v.3s-3.72,0-3.72,0v-.3c.21,0,.34-.03.5-.16.13-.1.49-.69.49-.8V1.3h-3.23c-.72,0-1.53,1.2-1.41,1.9h-.3V.31h11.71Z"></path>
      <path d="M71.82.31v2.89h-.3c.09-.71-.67-1.9-1.41-1.9h-3.31v14.95c0,.28.56,1.19.98,1.03v.3s-3.72,0-3.72,0v-.29c.45.07.99-.79.99-1.11V1.41l-.11-.11h-3.12s-.45.14-.51.17c-.6.28-.88,1.09-.96,1.7l-.23.03c.02-.07-.08-.16-.08-.19V.43l.11-.11h11.67Z"></path>
      <path d="M99.27.31v2.89h-.3c.15-.68-.75-1.9-1.41-1.9h-3.19l-.11.11v14.68c0,.39.48,1.31.99,1.18.03.08-.03.3-.11.3h-3.61v-.29c.45-.03.73-.39.86-.78.02-.06.13-.53.13-.56V1.41l-.11-.11h-3.12s-.51.16-.57.2c-.35.2-.67.72-.8,1.1-.09.28,0,.7-.34.61V.31h11.71Z"></path>
      <path d="M107.27,36.68c.06-.04.21,0,.31-.03.34-.12.58-.83.59-1.16-.26-4.61.34-9.59,0-14.15-.03-.38-.16-.96-.51-1.17-.15-.1-.58-.05-.49-.35.03-.1.17-.11.26-.12,1.05-.12,2.34.09,3.41.02.39.33-.12.33-.29.44-.41.26-.55.95-.57,1.4.22,4.44-.29,9.14,0,13.55.03.48.13,1.2.57,1.48.15.09.51.06.42.34-.03.1-.17.11-.26.12-1.03.12-2.29-.1-3.35,0-.23.02-.2-.3-.1-.37Z"></path>
      <path d="M79.42,19.71v.38c-.59-.04-.87.68-.92,1.18v14.3c.03.28.27.87.49,1.03.14.1.51.05.42.34-.03.1-.17.11-.26.12-.73.08-2.37.06-3.13,0-.17-.01-.41-.01-.34-.27.03-.11.31-.11.42-.19.23-.15.39-.49.47-.75.23-4.79.03-9.63.1-14.43-.05-.55-.32-1.41-.99-1.33v-.38h3.73Z"></path>
      <path d="M146.41.25c1.01-.16,1.62.61,1.69,1.54.13,1.86-1.3,3.18-2.85,3.91l-.15-.3c.63-.61,1.58-1.59,1.49-2.54-.06-.63-.85-.59-1.02-1.12-.19-.63.16-1.39.84-1.49Z"></path>
    </g>
    <g>
      <path d="M32.74,47.71c-.36,0-.69-.07-1-.2s-.57-.32-.79-.55c-.22-.24-.4-.52-.52-.85-.12-.33-.19-.68-.19-1.07s.06-.75.18-1.07c.12-.32.29-.6.52-.84.22-.24.49-.42.8-.55.31-.13.64-.19,1-.19.4,0,.77.08,1.09.24s.58.39.79.68.33.63.38,1.02h-.75c-.06-.41-.23-.73-.49-.95-.27-.23-.6-.34-1-.34-.34,0-.64.08-.9.25-.26.17-.46.4-.61.7s-.22.65-.22,1.06.07.76.22,1.06.35.54.61.71c.26.17.56.25.9.25.4,0,.74-.11,1.01-.34s.44-.55.49-.95h.76c-.05.39-.18.74-.39,1.03-.21.29-.47.52-.79.68-.32.16-.68.24-1.08.24Z"></path>
      <path d="M38.81,47.71c-.37,0-.71-.07-1.01-.2s-.57-.32-.8-.56-.4-.52-.53-.85c-.13-.33-.19-.69-.19-1.08,0-.52.11-.98.32-1.38.22-.4.51-.71.9-.93.38-.22.82-.33,1.31-.33s.94.11,1.32.33c.38.22.68.53.9.93.22.4.33.86.33,1.38,0,.39-.06.75-.19,1.08-.13.33-.3.61-.53.85-.23.24-.49.42-.8.55s-.65.2-1.01.2ZM38.8,47.07c.35,0,.65-.09.91-.26.26-.18.47-.42.62-.72.15-.31.23-.66.23-1.06s-.07-.74-.22-1.04c-.15-.3-.36-.53-.62-.7s-.57-.25-.92-.25-.66.08-.92.25-.47.4-.61.69c-.15.3-.22.65-.22,1.04s.07.76.22,1.06c.15.31.35.55.62.72.26.17.56.26.91.26Z"></path>
      <path d="M42.9,47.64v-5.18h2.04c.37,0,.69.06.96.18.26.12.47.29.61.51s.22.48.22.77-.07.56-.22.78-.35.39-.61.52c-.26.12-.58.19-.96.19h-1.47v-.62h1.45c.35,0,.61-.08.79-.23.18-.15.27-.36.27-.63s-.09-.48-.27-.63c-.18-.15-.44-.22-.79-.22h-1.26v4.56h-.76ZM45.89,47.64l-2.53-2.61h.93l2.69,2.61h-1.09Z"></path>
      <path d="M48.38,47.64v-5.18h2.19c.37,0,.69.06.96.19.26.12.47.3.61.53.14.23.21.5.21.82s-.07.6-.21.83c-.14.23-.35.41-.61.54-.27.13-.58.19-.95.19h-1.61v-.63h1.58c.34,0,.6-.08.78-.24.18-.16.27-.39.27-.68s-.09-.53-.27-.68c-.18-.16-.44-.24-.78-.24h-1.4v4.56h-.76Z"></path>
      <path d="M56.12,47.71c-.37,0-.71-.07-1.01-.2s-.57-.32-.8-.56-.4-.52-.53-.85c-.13-.33-.19-.69-.19-1.08,0-.52.11-.98.32-1.38.22-.4.51-.71.9-.93.38-.22.82-.33,1.31-.33s.94.11,1.32.33c.38.22.68.53.9.93.22.4.33.86.33,1.38,0,.39-.06.75-.19,1.08-.13.33-.3.61-.53.85-.23.24-.49.42-.8.55s-.65.2-1.01.2ZM56.11,47.07c.35,0,.65-.09.91-.26.26-.18.47-.42.62-.72.15-.31.23-.66.23-1.06s-.07-.74-.22-1.04c-.15-.3-.36-.53-.62-.7s-.57-.25-.92-.25-.66.08-.92.25-.47.4-.61.69c-.15.3-.22.65-.22,1.04s.07.76.22,1.06c.15.31.35.55.62.72.26.17.56.26.91.26Z"></path>
      <path d="M60.21,47.64v-5.18h2.04c.37,0,.69.06.96.18.26.12.47.29.61.51s.22.48.22.77-.07.56-.22.78-.35.39-.61.52c-.26.12-.58.19-.96.19h-1.47v-.62h1.45c.35,0,.61-.08.79-.23.18-.15.27-.36.27-.63s-.09-.48-.27-.63c-.18-.15-.44-.22-.79-.22h-1.26v4.56h-.76ZM63.2,47.64l-2.53-2.61h.93l2.69,2.61h-1.09Z"></path>
      <path d="M65.38,47.64l1.95-5.18h.66l-1.86,5.18h-.75ZM66.37,45.58h2.78v.63h-2.78v-.63ZM69.39,47.64l-1.86-5.18h.7l1.96,5.18h-.79Z"></path>
      <path d="M72.24,47.64v-4.56h-1.75v-.63h4.26v.63h-1.75v4.56h-.76Z"></path>
      <path d="M76.24,47.64v-5.18h.76v5.18h-.76ZM76.61,43.09v-.63h3.16v.63h-3.16ZM76.61,45.27v-.63h2.97v.63h-2.97ZM76.61,47.64v-.63h3.22v.63h-3.22Z"></path>
      <path d="M83.66,47.64v-5.18h1.18l1.73,4.99h-.39l1.71-4.99h1.19v5.18h-.76v-4.87h.12l-1.67,4.87h-.85l-1.67-4.83h.12v4.83h-.71Z"></path>
      <path d="M90.87,47.64v-5.18h.76v5.18h-.76ZM91.24,43.09v-.63h3.16v.63h-3.16ZM91.24,45.27v-.63h2.97v.63h-2.97ZM91.24,47.64v-.63h3.22v.63h-3.22Z"></path>
      <path d="M96.15,47.64v-5.18h1.18l1.73,4.99h-.39l1.71-4.99h1.19v5.18h-.76v-4.87h.12l-1.67,4.87h-.85l-1.67-4.83h.12v4.83h-.71Z"></path>
      <path d="M103.36,47.64v-5.18h.76v5.18h-.76ZM103.92,47.64v-.59h1.55c.29,0,.52-.08.69-.24s.25-.37.25-.65c0-.29-.09-.52-.26-.69-.18-.17-.41-.26-.72-.26h-1.5v-.58h1.43c.29,0,.52-.07.68-.21.16-.14.24-.34.24-.61,0-.25-.08-.44-.23-.57-.15-.13-.37-.2-.67-.2h-1.46v-.59h1.58c.47,0,.84.11,1.12.34.28.23.42.54.42.93,0,.25-.06.47-.17.66s-.27.34-.46.44c-.2.1-.42.15-.67.15l.04-.15c.27,0,.51.06.72.18.21.12.38.29.5.5.12.21.19.46.19.73s-.07.52-.2.73-.32.37-.56.49c-.24.12-.52.17-.83.17h-1.67Z"></path>
      <path d="M108.69,47.64v-5.18h.76v5.18h-.76ZM109.06,43.09v-.63h3.16v.63h-3.16ZM109.06,45.27v-.63h2.97v.63h-2.97ZM109.06,47.64v-.63h3.22v.63h-3.22Z"></path>
      <path d="M113.79,47.64v-5.18h2.04c.37,0,.69.06.96.18.26.12.47.29.61.51s.22.48.22.77-.07.56-.22.78-.35.39-.61.52c-.26.12-.58.19-.96.19h-1.47v-.62h1.45c.35,0,.61-.08.79-.23.18-.15.27-.36.27-.63s-.09-.48-.27-.63c-.18-.15-.44-.22-.79-.22h-1.26v4.56h-.76ZM116.78,47.64l-2.53-2.61h.93l2.69,2.61h-1.09Z"></path>
    </g>
  </g>
</svg>
